<?xml version="1.0" standalone="no"?>
<!DOCTYPE svg PUBLIC "-//W3C//DTD SVG 20010904//EN"
 "http://www.w3.org/TR/2001/REC-SVG-20010904/DTD/svg10.dtd">
<svg version="1.0" xmlns="http://www.w3.org/2000/svg"
 width="423.000000pt" height="683.000000pt" viewBox="0 0 423.000000 683.000000"
 preserveAspectRatio="xMidYMid meet">

<g transform="translate(0.000000,683.000000) scale(0.100000,-0.100000)"
fill="#000000" stroke="none" >
<path  d="M2051 6798 c-68 -46 -90 -108 -68 -193 7 -28 -1 -40 -121 -180 -220
-257 -320 -334 -442 -343 -110 -8 -242 50 -528 233 -130 83 -152 100 -146 117
11 35 7 84 -10 116 -42 82 -177 81 -222 0 -27 -48 -11 -133 30 -167 14 -12 16
-77 16 -572 l0 -559 1570 0 1570 0 0 562 0 562 26 27 c51 53 40 139 -23 189
-38 30 -121 24 -158 -10 -37 -35 -52 -92 -36 -137 7 -20 9 -38 4 -42 -105 -74
-354 -234 -404 -258 -89 -44 -181 -67 -235 -58 -118 17 -245 117 -491 383 -91
99 -113 128 -107 144 12 38 6 98 -13 130 -28 48 -66 71 -125 76 -44 3 -59 0
-87 -20z m328 -708 l242 -249 -38 -24 c-21 -13 -127 -81 -237 -151 -109 -70
-204 -130 -211 -132 -7 -3 -118 63 -249 147 l-236 151 17 23 c26 34 457 484
464 485 3 0 115 -112 248 -250z m-1122 -302 c233 -149 426 -275 429 -279 3 -5
-183 -8 -438 -7 l-443 3 -3 284 c-2 260 -1 283 14 277 9 -4 208 -128 441 -278z
m2193 -3 l0 -285 -447 0 c-245 0 -443 3 -439 7 12 13 870 562 879 562 4 1 7
-127 7 -284z"/>
<path  d="M558 4946 c15 -703 -137 -1386 -459 -2054 -76 -160 -78 -163 -56
-172 12 -5 105 -40 207 -78 461 -172 907 -390 1260 -615 136 -87 367 -252 499
-357 70 -55 118 -87 125 -82 6 5 45 36 86 69 532 426 1147 761 1893 1029 59
21 107 41 107 45 0 3 -37 84 -81 180 -234 500 -360 933 -426 1459 -12 100 -17
219 -17 462 l-1 328 -1571 0 -1571 0 5 -214z m2815 -209 c22 -615 159 -1215
403 -1761 30 -66 53 -121 51 -122 -1 -1 -85 -36 -187 -77 -300 -122 -564 -247
-801 -378 -58 -33 -109 -59 -112 -59 -4 0 -7 166 -7 368 l0 368 -268 196
c-147 107 -286 208 -309 223 -51 33 -5 59 -380 -214 l-283 -205 0 -358 0 -358
-92 51 c-247 134 -519 261 -800 375 -89 36 -164 67 -165 68 -2 2 26 70 61 152
246 574 364 1105 392 1757 l6 157 1242 0 1243 0 6 -183z m-1393 -1602 l0 -75
-73 0 -74 0 -25 -107 -25 -108 305 -3 c168 -1 306 -1 308 1 2 2 -5 32 -16 67
-10 36 -24 84 -30 108 l-11 42 -74 0 -75 0 0 76 c0 42 4 74 9 72 5 -1 72 -48
149 -103 l141 -100 0 -396 1 -395 -116 -90 c-137 -106 -144 -110 -144 -90 0 8
16 89 35 180 19 92 35 173 35 181 0 13 -28 15 -180 15 -99 0 -180 -3 -180 -6
0 -3 14 -82 31 -175 16 -94 29 -177 27 -184 -2 -8 -55 22 -145 83 l-143 96 0
387 0 388 128 105 c70 58 130 105 135 106 4 0 7 -34 7 -75z"/>
<path  d="M1080 4625 c0 -2 17 -38 37 -80 l37 -75 76 0 76 0 13 -35 c15 -43 54
-65 115 -65 54 0 106 37 106 76 0 23 2 24 75 24 41 0 75 -3 75 -6 0 -5 -135
-470 -145 -501 -5 -16 552 -406 568 -397 48 28 540 379 543 388 3 9 -117 439
-141 504 -3 9 16 12 74 12 73 0 79 -2 74 -19 -3 -12 6 -31 24 -51 60 -67 193
-42 201 38 l3 32 80 0 79 0 40 80 40 80 -436 0 c-345 0 -435 -3 -431 -12 14
-38 178 -610 175 -612 -100 -73 -332 -230 -338 -229 -6 2 -316 218 -329 230
-5 3 36 148 133 476 l44 147 -434 0 c-239 0 -434 -2 -434 -5z"/>
<path d="M1442 3498 l-311 -223 -1 -260 0 -260 92 -50 c51 -28 96 -51 100 -53
4 -2 9 114 10 259 l3 262 290 209 c160 115 291 213 293 217 3 8 -148 121 -161
121 -2 0 -144 -100 -315 -222z"/>
<path  d="M2362 3663 c-45 -32 -82 -60 -82 -63 0 -3 133 -99 295 -215 l294
-210 0 -262 c1 -145 4 -263 7 -263 3 0 48 24 100 53 l94 52 0 260 0 260 -306
220 c-168 121 -309 221 -313 223 -4 1 -44 -24 -89 -55z"/>
</g>
</svg>
