<svg width="36" height="38" viewBox="0 0 36 38" fill="none" xmlns="http://www.w3.org/2000/svg">
<path d="M16.2198 1.65669C16.7644 1.35426 17.3771 1.19556 18 1.19556C18.6229 1.19556 19.2356 1.35426 19.7802 1.65669L33.5577 9.30902C33.8433 9.46786 34.0813 9.70018 34.247 9.9819C34.4127 10.2636 34.5 10.5845 34.5 10.9114V26.0089C34.4998 26.6627 34.3249 27.3046 33.9932 27.8681C33.6615 28.4316 33.1851 28.8961 32.6135 29.2135L19.7802 36.3452C19.2356 36.6476 18.6229 36.8063 18 36.8063C17.3771 36.8063 16.7644 36.6476 16.2198 36.3452L3.3865 29.2135C2.81515 28.8962 2.33899 28.432 2.00731 27.8689C1.67563 27.3058 1.50048 26.6642 1.5 26.0107V10.9114C1.49999 10.5845 1.58734 10.2636 1.75303 9.9819C1.91871 9.70018 2.15669 9.46786 2.44233 9.30902L16.2217 1.65669H16.2198Z" stroke="#1C1C1C" stroke-width="2" stroke-linecap="round" stroke-linejoin="round"/>
<path d="M1.5 9.83337L18 19M18 19L34.5 9.83337M18 19V37.3334" stroke="#1C1C1C" stroke-width="2" stroke-linejoin="round"/>
<path d="M9.75 14.4167L26.25 5.25M7 19.6013L12.5 22.6667" stroke="#1C1C1C" stroke-width="2" stroke-linecap="round" stroke-linejoin="round"/>
</svg>
