<svg width="56" height="60" viewBox="0 0 56 60" fill="none" xmlns="http://www.w3.org/2000/svg">
<path d="M35.6411 41.4114C35.4872 39.3403 35.4441 37.2626 35.5118 35.1869L35.5093 35.2782C37.3812 33.3552 38.5486 30.866 38.8252 28.2082L38.8301 28.1564C39.6734 28.0874 41.0042 27.2739 41.3923 24.0496C41.5094 23.4942 41.4652 22.9174 41.2649 22.386C41.0646 21.8545 40.7163 21.3903 40.2605 21.047L40.253 21.0421C41.6261 16.95 44.4768 4.28918 34.977 2.98267C33.9994 1.28174 31.4969 0.418945 28.2432 0.418945C15.226 0.655596 13.6564 10.1586 16.5021 21.0421C16.0426 21.3885 15.6922 21.8573 15.4917 22.3938C15.2913 22.9304 15.2492 23.5124 15.3703 24.0717L15.3678 24.052C15.7658 27.2715 17.0867 28.0899 17.93 28.1589C18.2257 30.8463 19.4303 33.3554 21.3478 35.2782C21.4109 37.3902 21.3627 39.504 21.2035 41.611L21.216 41.4114C18.6339 48.2742 1.25109 46.3465 0.455078 59.5817H56.3199C55.519 46.3465 38.2157 48.2742 35.6387 41.4114H35.6411Z" fill="#4FBAF0"/>
</svg>
