<svg width="54" height="60" viewBox="0 0 54 60" fill="none" xmlns="http://www.w3.org/2000/svg">
<path d="M27 0.942735C23.2285 0.805157 20.308 3.41094 17.1455 5.04828C12.8441 7.59805 8.41475 9.95023 4.19905 12.6322C1.44163 14.8734 0.174715 18.4798 0.464285 21.9625C0.48034 28.1374 0.432293 34.3136 0.488543 40.4875C0.845613 44.2258 3.4378 47.3984 6.77343 48.9623C12.1282 52.0355 17.4515 55.166 22.8259 58.2034C26.2424 59.7612 30.2869 59.1061 33.3091 56.9983C38.6482 53.8971 44.0203 50.8507 49.3384 47.7148C52.3976 45.5368 53.8498 41.7058 53.5358 38.0352C53.5198 31.8602 53.5679 25.6841 53.5116 19.5102C53.1541 15.7721 50.5624 12.5988 47.2264 11.0356C41.8716 7.96297 36.5473 4.83465 31.1732 1.79691C29.8724 1.1927 28.4275 0.946719 27.0001 0.942617L27 0.942735ZM23.6373 16.4923H30.3639V43.5064H23.6373V16.4923ZM32.1019 22.3721H38.8251V43.5064H32.1019V22.3721ZM15.1739 33.3971H21.8993V43.5064H15.1739V33.397V33.3971Z" fill="#6ECCFB"/>
</svg>
