<svg width="29" height="32" viewBox="0 0 29 32" fill="none" xmlns="http://www.w3.org/2000/svg">
<path d="M16.1719 8C17.7865 8 19.3177 8.30208 20.7656 8.90625C22.2135 9.51042 23.5104 10.3802 24.6562 11.5156C25.7917 12.651 26.6615 13.9427 27.2656 15.3906C27.8698 16.8385 28.1719 18.375 28.1719 20C28.1719 21.1042 28.0312 22.1667 27.75 23.1875C27.4688 24.2083 27.0625 25.1615 26.5312 26.0469C26 26.9323 25.375 27.7448 24.6562 28.4844C23.9375 29.224 23.1302 29.849 22.2344 30.3594C21.3385 30.8698 20.3802 31.2708 19.3594 31.5625C18.3385 31.8542 17.276 32 16.1719 32H2.17188V30H16.1719C17.0885 30 17.974 29.8802 18.8281 29.6406C19.6823 29.401 20.4792 29.0677 21.2188 28.6406C21.9583 28.2135 22.6302 27.6927 23.2344 27.0781C23.8385 26.4635 24.3594 25.7865 24.7969 25.0469C25.2344 24.3073 25.5729 23.5104 25.8125 22.6562C26.0521 21.8021 26.1719 20.9167 26.1719 20C26.1719 19.0833 26.0521 18.1979 25.8125 17.3438C25.5729 16.4896 25.2396 15.6927 24.8125 14.9531C24.3854 14.2135 23.8646 13.5417 23.25 12.9375C22.6354 12.3333 21.9583 11.8125 21.2188 11.375C20.4792 10.9375 19.6823 10.599 18.8281 10.3594C17.974 10.1198 17.0885 10 16.1719 10H3.34375L10 16.6719L8.84375 17.8281L0 9L8.84375 0.171875L10 1.32812L3.34375 8H16.1719Z" fill="#1C1C1C"/>
</svg>
